HIERARCHY
ROOT joint_Root
{
	OFFSET 0.0 0.0 0.0
	CHANNELS 6 Xposition Yposition Zposition Zrotation Xrotation Yrotation 
	JOINT Hips
	{
		OFFSET -17.1583 93.1646 452.98
		CHANNELS 6 Xposition Yposition Zposition Zrotation Xrotation Yrotation 
		JOINT Spine
		{
			OFFSET 15.7357 0.0 0.0
			CHANNELS 6 Xposition Yposition Zposition Zrotation Xrotation Yrotation 
			JOINT Chest
			{
				OFFSET 8.98455 -0.406207 0.0
				CHANNELS 6 Xposition Yposition Zposition Zrotation Xrotation Yrotation 
				JOINT Neck
				{
					OFFSET 16.3773 0.0 0.0
					CHANNELS 6 Xposition Yposition Zposition Zrotation Xrotation Yrotation 
					JOINT Head
					{
						OFFSET 6.45672 0.0 0.0
						CHANNELS 6 Xposition Yposition Zposition Zrotation Xrotation Yrotation 
						End Site
						{
							OFFSET 0.0 0.0 0.0
						}
					}
				}
				JOINT Shoulder_L
				{
					OFFSET 12.9942 -0.242716 4.98039
					CHANNELS 6 Xposition Yposition Zposition Zrotation Xrotation Yrotation 
					JOINT UpperArm_L
					{
						OFFSET 5.34809 0.0 0.0
						CHANNELS 6 Xposition Yposition Zposition Zrotation Xrotation Yrotation 
						JOINT LowerArm_L
						{
							OFFSET 24.3286 1.87007e-05 0.0
							CHANNELS 6 Xposition Yposition Zposition Zrotation Xrotation Yrotation 
							JOINT Hand_L
							{
								OFFSET 22.2916 0.0 0.0
								CHANNELS 6 Xposition Yposition Zposition Zrotation Xrotation Yrotation 
								End Site
								{
									OFFSET 0.0 0.0 0.0
								}
							}
						}
					}
				}
				JOINT Shoulder_R
				{
					OFFSET 12.9945 -0.242716 -4.98039
					CHANNELS 6 Xposition Yposition Zposition Zrotation Xrotation Yrotation 
					JOINT UpperArm_R
					{
						OFFSET -5.34813 0.0 0.0
						CHANNELS 6 Xposition Yposition Zposition Zrotation Xrotation Yrotation 
						JOINT LowerArm_R
						{
							OFFSET -24.3289 0.000322201 0.0
							CHANNELS 6 Xposition Yposition Zposition Zrotation Xrotation Yrotation 
							JOINT Hand_R
							{
								OFFSET -22.2915 -0.000108084 0.0
								CHANNELS 6 Xposition Yposition Zposition Zrotation Xrotation Yrotation 
								End Site
								{
									OFFSET 0.0 0.0 0.0
								}
							}
						}
					}
				}
			}
		}
		JOINT UpperLeg_L
		{
			OFFSET -2.19248 -6.46944 0.0
			CHANNELS 6 Xposition Yposition Zposition Zrotation Xrotation Yrotation 
			JOINT LowerLeg_L
			{
				OFFSET 39.0811 0.0 -1.23785e-05
				CHANNELS 6 Xposition Yposition Zposition Zrotation Xrotation Yrotation 
				JOINT Foot_L
				{
					OFFSET 40.9854 0.0 -1.26872e-05
					CHANNELS 6 Xposition Yposition Zposition Zrotation Xrotation Yrotation 
					JOINT Toes_L
					{
						OFFSET 11.7543 0.0 0.0
						CHANNELS 6 Xposition Yposition Zposition Zrotation Xrotation Yrotation 
						End Site
						{
							OFFSET 0.0 0.0 0.0
						}
					}
				}
			}
		}
		JOINT UpperLeg_R
		{
			OFFSET -2.19251 6.46944 0.0
			CHANNELS 6 Xposition Yposition Zposition Zrotation Xrotation Yrotation 
			JOINT LowerLeg_R
			{
				OFFSET -39.0811 -0.00228153 -0.0401928
				CHANNELS 6 Xposition Yposition Zposition Zrotation Xrotation Yrotation 
				JOINT Foot_R
				{
					OFFSET -40.9854 0.0 0.0
					CHANNELS 6 Xposition Yposition Zposition Zrotation Xrotation Yrotation 
					JOINT Toes_R
					{
						OFFSET -11.7543 0.0 0.0
						CHANNELS 6 Xposition Yposition Zposition Zrotation Xrotation Yrotation 
						End Site
						{
							OFFSET 0.0 0.0 0.0
						}
					}
				}
			}
		}
	}
}
MOTION
Frames:	4
Frame Time:	0.0333333
0.000000 0.000000 0.000000 0.000000 0.000000 -0.000000 0.469827 93.215000 49.976700 -92.111900 8.365060 165.120000 15.735700 0.000005 -0.000001 124.025000 84.394000 -125.249000 8.984550 -0.406207 -0.000000 1.605680 6.336210 -2.536240 16.377300 -0.000001 -0.000001 -7.580850 2.124380 0.339911 6.456720 -0.000001 -0.000000 -14.356700 0.201706 -1.646320 12.994200 -0.242716 4.980390 -91.884800 5.311570 -70.429800 5.348090 -0.000007 -0.000001 -53.074700 -7.667110 14.994800 24.328600 0.000019 0.000005 0.000107 58.300700 -0.000000 22.291600 -0.000001 0.000005 -9.693350 4.420040 17.921200 12.994500 -0.242716 -4.980390 89.769000 0.965624 -76.547300 -5.348130 -0.000001 -0.000004 -58.754700 10.533000 -15.033000 -24.328900 0.000322 -0.000009 -2.516930 -1.295960 -62.741800 -22.291500 -0.000108 -0.000004 13.895400 5.537840 -8.144180 -2.192480 -6.469440 -0.000000 175.941000 -1.631170 -52.740400 39.081100 -0.000007 -0.000012 0.014545 -0.004381 73.214400 40.985400 -0.000006 -0.000013 -3.425100 -4.200200 -54.453400 11.754300 -0.000000 0.000003 0.002393 0.067452 -13.841000 -2.192510 6.469440 -0.000001 175.305000 7.796760 178.280000 -39.081100 -0.002282 -0.040193 0.007243 -0.010821 19.920300 -40.985400 0.000008 0.000006 -2.459840 5.889790 -51.169100 -11.754300 -0.000006 -0.000006 -0.037775 -0.251118 -26.882300
0.000000 0.000000 0.000000 0.000000 0.000000 -0.000000 0.620214 95.488900 40.249800 -91.155800 7.280490 164.397000 15.735700 0.000005 -0.000001 131.018000 84.449700 -132.024000 8.984550 -0.406207 -0.000000 0.683943 7.344990 -2.058210 16.377300 -0.000001 -0.000001 -6.913220 1.526130 0.380803 6.456720 -0.000001 -0.000000 -14.366500 -1.227060 -1.984840 12.994200 -0.242716 4.980390 -91.917300 5.110780 -69.405500 5.348090 -0.000007 -0.000001 -49.867200 -4.071570 15.341600 24.328600 0.000019 0.000005 -0.000839 55.881100 -0.000000 22.291600 -0.000001 0.000005 -6.513100 4.542020 15.887000 12.994500 -0.242716 -4.980390 89.758700 1.002520 -76.466000 -5.348130 -0.000001 -0.000004 -58.866400 9.448930 -15.762000 -24.328900 0.000322 -0.000009 -3.648750 -1.442340 -68.442900 -22.291500 -0.000108 -0.000004 12.630800 5.538490 -8.175360 -2.192480 -6.469440 -0.000000 178.644000 -0.350466 -49.448700 39.081100 -0.000007 -0.000012 0.018227 -0.013876 52.710500 40.985400 -0.000006 -0.000013 -3.102270 -0.142332 -57.866500 11.754300 -0.000000 0.000003 0.002484 0.080762 -13.301400 -2.192510 6.469440 -0.000001 175.689000 11.869400 -176.971000 -39.081100 -0.002282 -0.040193 0.031554 -0.107410 14.722300 -40.985400 0.000008 0.000006 -2.536880 3.572480 -34.153900 -11.754300 -0.000006 -0.000006 0.002488 0.084122 -13.161700
0.000000 0.000000 0.000000 0.000000 0.000000 -0.000000 1.117340 96.072400 30.123400 -88.577400 5.656390 165.637000 15.735700 0.000005 -0.000001 134.062000 84.190700 -134.022000 8.984550 -0.406207 -0.000000 0.590547 8.074810 0.037681 16.377300 -0.000001 -0.000001 -6.034490 1.141730 0.318241 6.456720 -0.000001 -0.000000 -13.358100 -2.159980 -2.527060 12.994200 -0.242716 4.980390 -92.104600 5.461080 -68.886800 5.348090 -0.000007 -0.000001 -46.357100 -4.540670 15.304100 24.328600 0.000019 0.000005 -0.001709 46.306500 -0.000000 22.291600 -0.000001 0.000005 -2.146120 4.354260 18.902600 12.994500 -0.242716 -4.980390 89.754600 1.009270 -76.333500 -5.348130 -0.000001 -0.000004 -59.092600 9.067660 -14.748700 -24.328900 0.000322 -0.000009 -5.376460 -1.939150 -70.219700 -22.291500 -0.000108 -0.000004 11.504600 5.549600 -8.694330 -2.192480 -6.469440 -0.000000 -177.736000 -0.737574 -41.888100 39.081100 -0.000007 -0.000012 -0.002965 0.004882 31.275800 40.985400 -0.000006 -0.000013 -4.085580 4.848610 -62.707700 11.754300 -0.000000 0.000003 0.002487 0.082454 -13.232800 -2.192510 6.469440 -0.000001 178.056000 13.329900 -174.143000 -39.081100 -0.002282 -0.040193 0.075847 -0.195644 20.340000 -40.985400 0.000008 0.000006 -1.064530 -1.479280 -26.362300 -11.754300 -0.000006 -0.000006 -0.001321 0.187541 -8.965380
0.000000 0.000000 0.000000 0.000000 0.000000 -0.000000 1.349160 95.291500 19.750300 -86.887100 5.353130 167.176000 15.735700 0.000005 -0.000001 134.973000 83.859500 -134.292000 8.984550 -0.406207 -0.000000 0.885080 8.635580 1.295310 16.377300 -0.000001 -0.000001 -5.650260 1.022600 0.388475 6.456720 -0.000001 -0.000000 -11.838600 -2.372490 -2.382940 12.994200 -0.242716 4.980390 -91.879500 4.942580 -69.149800 5.348090 -0.000007 -0.000001 -44.940500 -8.454110 14.654100 24.328600 0.000019 0.000005 0.305122 36.572800 -0.511820 22.291600 -0.000001 0.000005 4.175030 4.274030 20.195800 12.994500 -0.242716 -4.980390 89.944100 0.233107 -76.527500 -5.348130 -0.000001 -0.000004 -61.390600 9.005010 -12.518000 -24.328900 0.000322 -0.000009 -6.728260 -2.652790 -68.576700 -22.291500 -0.000108 -0.000004 10.497900 5.551560 -8.779430 -2.192480 -6.469440 -0.000000 -176.556000 -3.192480 -33.691700 39.081100 -0.000007 -0.000012 -0.006456 0.027216 13.343600 40.985400 -0.000006 -0.000013 -7.503510 9.554440 -68.512300 11.754300 -0.000000 0.000003 0.002487 0.083656 -13.184100 -2.192510 6.469440 -0.000001 -178.604000 7.159680 -173.426000 -39.081100 -0.002282 -0.040193 0.083895 -0.128001 32.197300 -40.985400 0.000008 0.000006 -3.529810 -6.391080 -30.244400 -11.754300 -0.000006 -0.000006 -0.001338 0.187766 -8.956230
